<svg width="20" height="20" viewBox="0 0 20 20" fill="none" xmlns="http://www.w3.org/2000/svg">
  <g id="chevron_down_regular">
    <path id="Vector" d="M3.51665 7.0583C3.63383 6.94126 3.79269 6.87552 3.95831 6.87552C4.12394 6.87552 4.28279 6.94126 4.39998 7.0583L9.99998 12.6583L15.6 7.0583C15.6572 6.99689 15.7262 6.94764 15.8029 6.91348C15.8795 6.87932 15.9623 6.86095 16.0462 6.85947C16.1301 6.85799 16.2135 6.87343 16.2913 6.90486C16.3691 6.9363 16.4398 6.98308 16.4992 7.04243C16.5585 7.10178 16.6053 7.17248 16.6367 7.2503C16.6682 7.32812 16.6836 7.41148 16.6821 7.4954C16.6807 7.57932 16.6623 7.66208 16.6281 7.73875C16.594 7.81541 16.5447 7.88441 16.4833 7.94163L10.4416 13.9833C10.3245 14.1003 10.1656 14.1661 9.99998 14.1661C9.83435 14.1661 9.6755 14.1003 9.55831 13.9833L3.51665 7.94163C3.3996 7.82444 3.33386 7.66559 3.33386 7.49997C3.33386 7.33434 3.3996 7.17549 3.51665 7.0583Z" fill="#262842"/>
  </g>
</svg>
